<svg height="511pt" viewBox="-16 0 511 511.99973" width="511pt" xmlns="http://www.w3.org/2000/svg"><path d="m301.074219 411.886719c-2.554688-2.195313-4.101563-3.292969-4.101563-3.292969h-113.191406s-1.546875 1.097656-4.101562 3.292969l-20.125 62.164062 20.125 37.949219h29.21875l31.476562-18.988281 31.480469 18.988281h29.21875l20.125-42.050781zm0 0" fill="#53be8d"/><path d="m179.679688 411.886719v100.113281h-44.792969c0-17.671875 3.367187-35.363281 10.15625-51.703125 10.707031-25.742187 27.078125-41.90625 34.636719-48.410156zm0 0" fill="#8c6a5a"/><path d="m345.863281 512h-44.789062v-100.113281c7.558593 6.503906 23.929687 22.667969 34.636719 48.410156 6.789062 16.339844 10.152343 34.03125 10.152343 51.703125zm0 0" fill="#8c6a5a"/><path d="m271.855469 416.761719c0 17.382812-14.09375 31.476562-31.480469 31.476562-17.382812 0-31.476562-14.09375-31.476562-31.476562 0-17.382813 14.09375-31.476563 31.476562-31.476563 17.386719 0 31.480469 14.09375 31.480469 31.476563zm0 0" fill="#7f6052"/><path d="m257.539062 474.027344h-34.324218c-7.90625 0-14.316406 6.410156-14.316406 14.316406v23.65625h62.957031v-23.65625c0-7.90625-6.410157-14.316406-14.316407-14.316406zm0 0" fill="#f3c44b"/><path d="m15.183594 73.023438c0 34.359374-14.683594 47.40625-14.683594 47.40625s13.242188 13.511718 33.992188 13.511718c20.753906 0 87.851562-98.871094 87.851562-98.871094 0-42.5625-107.160156-63.074218-107.160156 37.953126zm0 0" fill="#31363e"/><path d="m453.167969 151.144531-212.792969-30.714843-212.789062 30.714843c-8.164063 23.152344-12.402344 47.746094-12.402344 72.964844h450.382812c0-25.21875-4.234375-49.8125-12.398437-72.964844zm0 0" fill="#31363e"/><path d="m480.253906 254.300781c0 21.691407-17.585937 39.277344-39.277344 39.277344-21.691406 0-39.277343-17.585937-39.277343-39.277344 0-21.691406 17.585937-39.277343 39.277343-39.277343 21.691407 0 39.277344 17.585937 39.277344 39.277343zm0 0" fill="#7f6052"/><path d="m75.179688 120.429688c-19.484376 29.933593-30.78125 65.511718-30.78125 103.683593 0 106.394531 87.742187 192.648438 195.980468 192.648438 108.234375 0 195.976563-86.253907 195.976563-192.648438 0-38.171875-11.296875-73.75-30.78125-103.683593zm0 0" fill="#8c6a5a"/><path d="m75.304688 224.113281c0-38.171875 11.296874-73.75 30.78125-103.683593h-30.90625c-17.984376 27.625-28.984376 60.066406-30.574219 94.914062-1.554688-.203125-3.160157-.320312-4.828125-.320312-21.691406 0-39.277344 17.585937-39.277344 39.277343 0 21.691407 17.585938 39.277344 39.277344 39.277344 6.191406 0 11.628906-1.441406 16.238281-3.992187 27.261719 74.164062 99.511719 127.175781 184.359375 127.175781 5.203125 0 10.355469-.203125 15.453125-.59375-101.011719-7.746094-180.523437-90.769531-180.523437-192.054688zm0 0" fill="#7f6052"/><path d="m333.535156 261.179688c-4.269531 0-7.726562-3.457032-7.726562-7.726563v-18.113281c0-4.265625 3.457031-7.726563 7.726562-7.726563 4.269532 0 7.726563 3.460938 7.726563 7.726563v18.113281c0 4.269531-3.457031 7.726563-7.726563 7.726563zm0 0" fill="#394048"/><path d="m345.871094 287.804688h-24.671875c-4.269531 0-7.726563-3.460938-7.726563-7.726563s3.457032-7.726563 7.726563-7.726563h24.671875c4.265625 0 7.726562 3.460938 7.726562 7.726563s-3.460937 7.726563-7.726562 7.726563zm0 0" fill="#e98e8f"/><path d="m147.21875 261.179688c-4.265625 0-7.726562-3.457032-7.726562-7.726563v-18.113281c0-4.265625 3.460937-7.726563 7.726562-7.726563 4.269531 0 7.726562 3.460938 7.726562 7.726563v18.113281c0 4.269531-3.460937 7.726563-7.726562 7.726563zm0 0" fill="#394048"/><path d="m159.554688 287.804688h-24.671876c-4.269531 0-7.726562-3.460938-7.726562-7.726563s3.457031-7.726563 7.726562-7.726563h24.671876c4.265624 0 7.726562 3.460938 7.726562 7.726563s-3.460938 7.726563-7.726562 7.726563zm0 0" fill="#e98e8f"/><path d="m240.375 286.78125c-8.722656 0-16.917969-3.648438-22.476562-10.011719-2.808594-3.214843-2.480469-8.09375.730468-10.902343 3.214844-2.808594 8.09375-2.480469 10.902344.730468 2.628906 3.007813 6.582031 4.730469 10.84375 4.730469 4.265625 0 8.21875-1.722656 10.847656-4.730469 2.804688-3.210937 7.6875-3.539062 10.902344-.730468 3.210938 2.808593 3.539062 7.6875.730469 10.902343-5.5625 6.363281-13.753907 10.011719-22.480469 10.011719zm0 0" fill="#394048"/><path d="m399.433594 67.054688c-42.511719-41.785157-99.003906-64.800782-159.058594-64.800782-60.050781 0-116.542969 23.015625-159.054688 64.800782-7.285156 7.15625-14.011718 14.726562-20.15625 22.65625l179.210938 30.71875 179.210938-30.71875c-6.140626-7.929688-12.871094-15.5-20.152344-22.65625zm0 0" fill="#394048"/><path d="m102.371094 89.710938c6.144531-7.929688 12.875-15.496094 20.15625-22.65625 37.613281-36.96875 86.171875-59.234376 138.453125-63.875-6.8125-.605469-13.683594-.925782-20.605469-.925782-60.050781 0-116.542969 23.015625-159.054688 64.800782-7.285156 7.15625-14.011718 14.726562-20.15625 22.65625l179.210938 30.71875 20.605469-3.535157zm0 0" fill="#31363e"/><path d="m453.167969 151.144531h-425.582031c7.753906-22 19.035156-42.707031 33.578124-61.433593h358.421876c14.546874 18.726562 25.828124 39.433593 33.582031 61.433593zm0 0" fill="#f3c44b"/><path d="m61.164062 89.710938c-14.542968 18.726562-25.824218 39.433593-33.578124 61.433593h41.207031c7.753906-22 19.035156-42.707031 33.578125-61.433593zm0 0" fill="#e0b545"/></svg>