<svg height="512pt" viewBox="-50 0 512 512" width="512pt" xmlns="http://www.w3.org/2000/svg"><path d="m371.441406 309.332031c0-77.726562-74.253906-140.734375-165.851562-140.734375s-165.851563 63.007813-165.851563 140.734375c0 77.726563 74.253907 140.734375 165.851563 140.734375s165.851562-63.007812 165.851562-140.734375zm0 0" fill="#5a4650"/><path d="m39.339844 512c0-91.820312 74.433594-166.253906 166.25-166.253906s166.253906 74.433594 166.253906 166.253906zm0 0" fill="#b67f5f"/><path d="m231.539062 347.769531c-8.453124-1.328125-17.121093-2.023437-25.949218-2.023437-91.820313 0-166.25 74.433594-166.25 166.253906h51.898437c0-82.988281 60.8125-151.769531 140.300781-164.230469zm0 0" fill="#a06e50"/><path d="m319.941406 512v-36.054688c0-5.691406-4.613281-10.304687-10.304687-10.304687-5.6875 0-10.300781-4.609375-10.300781-10.300781v-80.648438c-26.691407-18.257812-58.96875-28.945312-93.746094-28.945312s-67.058594 10.6875-93.746094 28.945312v80.648438c0 5.691406-4.613281 10.300781-10.300781 10.300781-5.691407 0-10.304688 4.613281-10.304688 10.304687v36.054688zm0 0" fill="#ffd164"/><path d="m254.203125 465.640625h-97.011719c-4.824218 0-8.734375 3.914063-8.734375 8.738281v37.621094h114.480469v-37.621094c0-4.824218-3.910156-8.738281-8.734375-8.738281zm0 0" fill="#fff"/><path d="m208.703125 465.640625h-51.511719c-4.824218 0-8.734375 3.914063-8.734375 8.738281v37.621094h51.511719v-37.621094c0-4.824218 3.910156-8.738281 8.734375-8.738281zm0 0" fill="#edebed"/><path d="m231.546875 347.765625c-8.457031-1.324219-17.125-2.019531-25.957031-2.019531-34.777344 0-67.058594 10.6875-93.746094 28.945312v57.101563c24.324219-44.078125 68.070312-75.933594 119.703125-84.027344zm0 0" fill="#ffc350"/><path d="m115.714844 372.128906c27.015625 13.71875 57.558594 21.460938 89.875 21.460938s62.859375-7.742188 89.875-21.460938c-25.914063-16.6875-56.761719-26.382812-89.875-26.382812-33.113282 0-63.960938 9.695312-89.875 26.382812zm0 0" fill="#ffc350"/><path d="m205.695312 440.910156c-31.609374 0-57.238281-25.628906-57.238281-57.238281v-86.570313c0-31.613281 25.628907-57.242187 57.238281-57.242187 31.613282 0 57.242188 25.628906 57.242188 57.242187v86.570313c0 31.609375-25.628906 57.238281-57.242188 57.238281zm0 0" fill="#b67f5f"/><path d="m205.695312 260.464844c-31.609374 0-57.238281 25.625-57.238281 57.238281v67.210937c18.105469 5.429688 37.28125 8.359376 57.132813 8.359376 19.929687 0 39.179687-2.953126 57.347656-8.425782v-67.144531c0-31.613281-25.628906-57.238281-57.242188-57.238281zm0 0" fill="#a06e50"/><path d="m411.179688 204.003906c0 19.550782-15.851563 35.402344-35.40625 35.402344-19.554688 0-35.40625-15.851562-35.40625-35.402344 0-19.554687 15.851562-35.40625 35.40625-35.40625 19.554687 0 35.40625 15.851563 35.40625 35.40625zm0 0" fill="#b67f5f"/><path d="m70.8125 204.003906c0 19.550782-15.851562 35.402344-35.40625 35.402344s-35.40625-15.851562-35.40625-35.402344c0-19.554687 15.851562-35.40625 35.40625-35.40625s35.40625 15.851563 35.40625 35.40625zm0 0" fill="#a06e50"/><path d="m384.199219 194.0625c0 98.640625-79.964844 178.609375-178.609375 178.609375-98.644532 0-178.609375-79.96875-178.609375-178.609375 0-98.644531 79.964843-178.609375 178.609375-178.609375 98.644531 0 178.609375 79.964844 178.609375 178.609375zm0 0" fill="#cd916e"/><path d="m78.488281 194.0625c0-89.898438 66.417969-164.269531 152.855469-176.753906-8.410156-1.214844-17.003906-1.855469-25.753906-1.855469-98.644532 0-178.609375 79.964844-178.609375 178.609375 0 98.640625 79.964843 178.609375 178.609375 178.609375 8.746094 0 17.34375-.640625 25.753906-1.855469-86.4375-12.488281-152.855469-86.859375-152.855469-176.753906zm0 0" fill="#b67f5f"/><path d="m398.90625 176.976562c-8.675781-99.035156-92.066406-176.976562-193.316406-176.976562-101.21875 0-184.585938 77.890625-193.308594 176.882812l.089844.242188c4.578125-3.929688 10.171875-6.707031 16.335937-7.886719-1.128906 8.113281-1.726562 16.398438-1.726562 24.824219 0 10.386719.910156 20.5625 2.613281 30.464844 22.765625 0 41.21875-18.457032 41.21875-41.21875v-52.164063s39.1875-37.914062 134.886719-37.914062 134.667969 38.070312 134.667969 38.070312v52.007813c0 22.765625 18.453124 41.21875 41.21875 41.21875 1.703124-9.902344 2.613281-20.078125 2.613281-30.464844 0-8.425781-.597657-16.710938-1.726563-24.824219 6.179688 1.183594 11.785156 3.972657 16.371094 7.914063zm0 0" fill="#6e5a64"/><path d="m70.8125 183.019531v-51.875s4.414062-4.265625 13.882812-9.933593c25.300782-62.238282 82-108.496094 150.335938-118.96875-9.601562-1.46875-19.433594-2.242188-29.441406-2.242188-101.21875 0-184.585938 77.890625-193.308594 176.882812l.089844.242188c4.578125-3.929688 10.171875-6.707031 16.335937-7.886719-1.128906 8.113281-1.726562 16.398438-1.726562 24.824219 0 10.386719.910156 20.5625 2.613281 30.464844 21.46875 0 39.09375-16.414063 41.035156-37.371094.046875-1.382812.105469-2.761719.183594-4.136719zm0 0" fill="#64505a"/><g fill="#5a4650"><path d="m205.589844 259.265625c-9.78125 0-18.886719-5.273437-23.765625-13.757813-2.066407-3.59375-.828125-8.179687 2.761719-10.242187 3.59375-2.066406 8.175781-.828125 10.242187 2.765625 2.210937 3.84375 6.332031 6.234375 10.761719 6.234375 4.429687 0 8.550781-2.390625 10.761718-6.234375 2.066407-3.589844 6.652344-4.828125 10.242188-2.761719 3.589844 2.0625 4.828125 6.648438 2.761719 10.238281-4.878907 8.484376-13.984375 13.757813-23.765625 13.757813zm0 0"/><path d="m271.199219 229.101562c-4.140625 0-7.5-3.355468-7.5-7.5v-11.695312c0-4.144531 3.359375-7.5 7.5-7.5 4.144531 0 7.5 3.355469 7.5 7.5v11.695312c0 4.144532-3.355469 7.5-7.5 7.5zm0 0"/><path d="m139.980469 229.101562c-4.144531 0-7.5-3.355468-7.5-7.5v-11.695312c0-4.144531 3.355469-7.5 7.5-7.5 4.140625 0 7.5 3.355469 7.5 7.5v11.695312c0 4.144532-3.359375 7.5-7.5 7.5zm0 0"/></g><path d="m277.050781 251.214844h-11.699219c-4.140624 0-7.5-3.355469-7.5-7.5 0-4.140625 3.359376-7.5 7.5-7.5h11.699219c4.144531 0 7.5 3.359375 7.5 7.5 0 4.144531-3.355469 7.5-7.5 7.5zm0 0" fill="#e6646e"/><path d="m145.828125 251.214844h-11.699219c-4.144531 0-7.5-3.355469-7.5-7.5 0-4.140625 3.355469-7.5 7.5-7.5h11.699219c4.140625 0 7.5 3.359375 7.5 7.5 0 4.144531-3.359375 7.5-7.5 7.5zm0 0" fill="#e6646e"/></svg>