<svg height="512pt" viewBox="-41 0 512 512" width="512pt" xmlns="http://www.w3.org/2000/svg"><path d="m146.460938 408.628906c-12.660157 10.320313-28.453126 26.929688-38.558594 51.035156-6.121094 14.609376-10.148438 31.96875-10.148438 52.335938h48.707032l21.976562-43.785156zm0 0" fill="#f4cda4"/><path d="m287.25 408.628906c12.660156 10.320313 28.457031 26.929688 38.5625 51.035156 6.117188 14.609376 10.144531 31.96875 10.144531 52.335938h-48.707031l-21.972656-43.785156zm0 0" fill="#f4cda4"/><path d="m287.25 408.628906v103.371094h-140.789062v-103.371094c11.332031-9.230468 20.164062-13.414062 20.164062-13.414062h100.464844s8.828125 4.183594 20.160156 13.414062zm0 0" fill="#e38faa"/><path d="m260.179688 402.570312c0 23.925782-19.394532 43.324219-43.324219 43.324219-23.925781 0-43.324219-19.398437-43.324219-43.324219 0-23.929687 19.398438-43.324218 43.324219-43.324218 23.929687 0 43.324219 19.394531 43.324219 43.324218zm0 0" fill="#f1bf94"/><path d="m134.25 67.125c0 37.074219-30.050781 67.125-67.125 67.125-37.070312 0-67.125-30.050781-67.125-67.125 0-37.070312 30.054688-67.125 67.125-67.125 37.074219 0 67.125 30.054688 67.125 67.125zm0 0" fill="#a07067"/><path d="m406.660156 156.0625-189.804687-25.410156-189.804688 25.410156c-8.777343 22.644531-13.597656 47.246094-13.597656 72.949219h406.808594c0-25.703125-4.824219-50.304688-13.601563-72.949219zm0 0" fill="#b27d74"/><path d="m377.757812 105.019531c-37.128906-48.140625-95.441406-79.226562-160.902343-79.226562-65.148438 0-123.21875 30.789062-160.371094 78.539062l-.691406.910157 161.0625 25.410156 161.0625-25.410156zm0 0" fill="#b27d74"/><path d="m430.289062 229.007812c0 21.738282-17.625 39.363282-39.363281 39.363282s-39.359375-17.625-39.359375-39.363282c0-21.738281 17.621094-39.359374 39.359375-39.359374s39.363281 17.621093 39.363281 39.359374zm0 0" fill="#f1bf94"/><path d="m390.925781 228.605469c-.058593-25.097657-8.871093-49.484375-24.855469-68.835938-1.050781-1.269531-2.105468-2.5-3.167968-3.707031l-146.046875-25.410156-146.046875 25.410156c-1.0625 1.207031-2.121094 2.4375-3.171875 3.707031-15.980469 19.351563-24.792969 43.738281-24.851563 68.835938v.402343c0 95.855469 77.933594 173.5625 174.070313 173.5625s174.070312-77.707031 174.070312-173.5625c0-.132812 0-.269531 0-.402343zm0 0" fill="#f4cda4"/><path d="m73.691406 229.007812c0-.132812 0-.269531 0-.402343.058594-25.097657 8.871094-49.484375 24.855469-68.832031 1.050781-1.273438 2.105469-2.5 3.167969-3.710938l130.59375-22.722656-15.453125-2.6875-146.046875 25.410156c-1.0625 1.207031-2.117188 2.4375-3.167969 3.710938-7.609375 9.210937-13.570313 19.570312-17.757813 30.597656-2.175781-.46875-4.535156-.722656-7.097656-.722656-21.738281 0-39.359375 17.621093-39.359375 39.359374 0 21.742188 17.621094 39.363282 39.359375 39.363282 1.554688 0 3.023438-.101563 4.433594-.277344 17.78125 77.035156 86.980469 134.476562 169.636719 134.476562 5.207031 0 10.359375-.242187 15.453125-.6875-88.894532-7.800781-158.617188-82.210937-158.617188-172.875zm0 0" fill="#f1bf94"/><path d="m310.792969 242.625c-4.269531 0-7.726563-3.460938-7.726563-7.726562v-18.265626c0-4.269531 3.457032-7.726562 7.726563-7.726562s7.726562 3.457031 7.726562 7.726562v18.265626c0 4.265624-3.457031 7.726562-7.726562 7.726562zm0 0" fill="#514e5b"/><path d="m323.230469 269.46875h-24.875c-4.269531 0-7.726563-3.457031-7.726563-7.726562 0-4.265626 3.457032-7.726563 7.726563-7.726563h24.875c4.269531 0 7.726562 3.460937 7.726562 7.726563 0 4.269531-3.457031 7.726562-7.726562 7.726562zm0 0" fill="#dc7c9f"/><path d="m122.917969 242.625c-4.269531 0-7.726563-3.460938-7.726563-7.726562v-18.265626c0-4.269531 3.457032-7.726562 7.726563-7.726562s7.726562 3.457031 7.726562 7.726562v18.265626c0 4.265624-3.457031 7.726562-7.726562 7.726562zm0 0" fill="#514e5b"/><path d="m135.355469 269.46875h-24.875c-4.269531 0-7.726563-3.457031-7.726563-7.726562 0-4.265626 3.457032-7.726563 7.726563-7.726563h24.875c4.269531 0 7.726562 3.460937 7.726562 7.726563 0 4.269531-3.457031 7.726562-7.726562 7.726562zm0 0" fill="#dc7c9f"/><path d="m216.855469 268.4375c-8.777344 0-17.019531-3.671875-22.617188-10.074219-2.808593-3.214843-2.480469-8.09375.734375-10.902343 3.210938-2.808594 8.089844-2.480469 10.902344.730468 2.660156 3.046875 6.664062 4.792969 10.980469 4.792969 4.320312 0 8.324219-1.746094 10.984375-4.792969 2.808594-3.210937 7.691406-3.539062 10.902344-.730468 3.214843 2.808593 3.542968 7.6875.734374 10.902343-5.597656 6.402344-13.84375 10.074219-22.621093 10.074219zm0 0" fill="#514e5b"/><path d="m406.660156 156.0625h-379.609375c7.117188-18.378906 16.84375-35.46875 28.742188-50.820312h322.125c11.890625 15.351562 21.625 32.441406 28.742187 50.820312zm0 0" fill="#d7ecec"/></svg>